<svg width="65" height="65" viewBox="0 0 65 65" fill="none" xmlns="http://www.w3.org/2000/svg">
<path d="M32.1706 24.7309C27.6302 24.7309 23.968 28.3931 23.968 32.9334C23.968 37.4738 27.6302 41.136 32.1706 41.136C36.7109 41.136 40.3731 37.4738 40.3731 32.9334C40.3731 28.3931 36.7109 24.7309 32.1706 24.7309ZM32.1706 38.2662C29.2365 38.2662 26.8378 35.8747 26.8378 32.9334C26.8378 29.9922 29.2293 27.6007 32.1706 27.6007C35.1118 27.6007 37.5033 29.9922 37.5033 32.9334C37.5033 35.8747 35.1046 38.2662 32.1706 38.2662ZM42.6219 24.3953C42.6219 25.459 41.7652 26.3086 40.7087 26.3086C39.645 26.3086 38.7954 25.4519 38.7954 24.3953C38.7954 23.3388 39.6521 22.4821 40.7087 22.4821C41.7652 22.4821 42.6219 23.3388 42.6219 24.3953ZM48.0546 26.3371C47.9332 23.7743 47.3478 21.5041 45.4703 19.6337C43.5999 17.7633 41.3297 17.1779 38.7669 17.0494C36.1255 16.8995 28.2085 16.8995 25.5671 17.0494C23.0114 17.1708 20.7412 17.7562 18.8637 19.6266C16.9862 21.497 16.4079 23.7671 16.2794 26.33C16.1295 28.9714 16.1295 36.8884 16.2794 39.5298C16.4008 42.0926 16.9862 44.3628 18.8637 46.2332C20.7412 48.1035 23.0042 48.6889 25.5671 48.8174C28.2085 48.9674 36.1255 48.9674 38.7669 48.8174C41.3297 48.6961 43.5999 48.1107 45.4703 46.2332C47.3407 44.3628 47.9261 42.0926 48.0546 39.5298C48.2045 36.8884 48.2045 28.9785 48.0546 26.3371ZM44.6422 42.3639C44.0853 43.7631 43.0074 44.8411 41.601 45.4051C39.495 46.2403 34.4978 46.0476 32.1706 46.0476C29.8433 46.0476 24.8389 46.2332 22.7401 45.4051C21.3409 44.8482 20.2629 43.7703 19.699 42.3639C18.8637 40.2579 19.0565 35.2607 19.0565 32.9334C19.0565 30.6062 18.8708 25.6018 19.699 23.503C20.2558 22.1038 21.3338 21.0258 22.7401 20.4618C24.8461 19.6266 29.8433 19.8193 32.1706 19.8193C34.4978 19.8193 39.5022 19.6337 41.601 20.4618C43.0002 21.0187 44.0782 22.0966 44.6422 23.503C45.4774 25.609 45.2847 30.6062 45.2847 32.9334C45.2847 35.2607 45.4774 40.2651 44.6422 42.3639Z" fill="url(#paint0_linear_95_161)"/>
<defs>
<linearGradient id="paint0_linear_95_161" x1="48.167" y1="16.937" x2="16.1741" y2="48.937" gradientUnits="userSpaceOnUse">
<stop stop-color="#FDCE6C"/>
<stop offset="0.5" stop-color="#DF327B"/>
<stop offset="1" stop-color="#7E37B2"/>
</linearGradient>
</defs>
</svg>
