<svg width="65" height="65" viewBox="0 0 65 65" fill="none" xmlns="http://www.w3.org/2000/svg">
<g clip-path="url(#clip0_95_163)">
<path d="M25.1018 44.937H19.2955V26.2433H25.1018V44.937ZM22.1955 23.6933C20.3393 23.6933 18.833 22.1558 18.833 20.2995C18.833 19.4077 19.1873 18.5525 19.8179 17.9219C20.4485 17.2913 21.3037 16.937 22.1955 16.937C23.0873 16.937 23.9426 17.2913 24.5732 17.9219C25.2037 18.5525 25.558 19.4077 25.558 20.2995C25.558 22.1558 24.0518 23.6933 22.1955 23.6933ZM46.8268 44.937H41.033V35.837C41.033 33.6683 40.9893 30.887 38.0143 30.887C34.9955 30.887 34.533 33.2433 34.533 35.6808V44.937H28.733V26.2433H34.3018V28.7933H34.383C35.158 27.3245 37.0518 25.7745 39.8768 25.7745C45.7518 25.7745 46.833 29.6433 46.833 34.6683V44.937H46.8268Z" fill="#0E76A8"/>
</g>
<defs>
<clipPath id="clip0_95_163">
<rect width="32" height="32" fill="white" transform="translate(16.833 16.937)"/>
</clipPath>
</defs>
</svg>
